<svg width="126" height="38" viewBox="0 0 126 38" fill="none" xmlns="http://www.w3.org/2000/svg">
<g clip-path="url(#clip0_88_4146)">
<path d="M115.987 -1.57713e-05H10.2827C9.89744 -1.57713e-05 9.51676 -1.57712e-05 9.13247 0.00185435C8.81079 0.00372447 8.49166 0.00915717 8.16689 0.0137296C7.46133 0.0211183 6.75744 0.0763564 6.06132 0.178964C5.36617 0.283805 4.6928 0.481461 4.06399 0.765247C3.43594 1.05143 2.86207 1.4233 2.36321 1.86736C1.86172 2.31018 1.4437 2.82201 1.12521 3.38318C0.805834 3.94323 0.58438 4.54338 0.468493 5.1629C0.351505 5.78163 0.288553 6.4075 0.280201 7.03489C0.27045 7.32158 0.26942 7.60922 0.264282 7.89595V29.5092C0.26942 29.7995 0.27045 30.0808 0.280201 30.3712C0.288555 30.9986 0.351508 31.6244 0.468493 32.2431C0.58406 32.863 0.805527 33.4635 1.12521 34.0237C1.44355 34.5831 1.86164 35.0928 2.36321 35.5332C2.86018 35.9792 3.43442 36.3514 4.06399 36.6354C4.6928 36.9199 5.36609 37.1187 6.06132 37.2252C6.75756 37.327 7.46138 37.3822 8.16689 37.3905C8.49166 37.3969 8.81079 37.4005 9.13247 37.4005C9.51675 37.4024 9.89746 37.4024 10.2827 37.4024H115.987C116.365 37.4024 116.749 37.4024 117.126 37.4005C117.446 37.4005 117.775 37.3969 118.095 37.3905C118.799 37.3827 119.502 37.3274 120.196 37.2252C120.894 37.118 121.57 36.9192 122.201 36.6354C122.83 36.3512 123.404 35.9791 123.901 35.5332C124.401 35.0911 124.82 34.5817 125.142 34.0237C125.459 33.4631 125.679 32.8626 125.793 32.2431C125.91 31.6243 125.975 30.9986 125.988 30.3712C125.992 30.0808 125.992 29.7995 125.992 29.5092C126 29.1695 126 28.8316 126 28.4864V8.91684C126 8.57441 126 8.23472 125.992 7.89595C125.992 7.60922 125.992 7.32158 125.988 7.03485C125.975 6.40741 125.91 5.78168 125.793 5.16286C125.679 4.5437 125.459 3.9436 125.142 3.38314C124.494 2.25834 123.465 1.34275 122.201 0.765163C121.57 0.482071 120.894 0.284467 120.196 0.17888C119.502 0.0758202 118.799 0.0205628 118.095 0.0135987C117.775 0.00903561 117.446 0.00355616 117.126 0.00173279C116.749 -0.000137329 116.365 -0.000137329 115.987 -0.000137329V-1.57713e-05Z" fill="#A6A6A6"/>
<path d="M9.04714 36.587C8.72645 36.587 8.41351 36.5834 8.09533 36.577C7.4362 36.5694 6.77861 36.5184 6.12796 36.4245C5.52126 36.3316 4.93352 36.1589 4.38415 35.9121C3.83981 35.6672 3.34333 35.3462 2.91373 34.9613C2.47791 34.5809 2.11507 34.1397 1.83959 33.6552C1.56107 33.1675 1.36832 32.6448 1.26805 32.1053C1.15977 31.5255 1.10118 30.9393 1.0928 30.3517C1.08613 30.1544 1.07739 29.4977 1.07739 29.4977V7.89277C1.07739 7.89277 1.0867 7.24613 1.09285 7.05615C1.10088 6.46945 1.15913 5.88414 1.26708 5.30529C1.36754 4.76426 1.56044 4.24005 1.83911 3.7508C2.11357 3.26663 2.4744 2.82511 2.90759 2.44336C3.3403 2.05798 3.83837 1.7353 4.38363 1.48709C4.93175 1.24101 5.51837 1.06952 6.12384 0.978365C6.77663 0.883498 7.4365 0.832209 8.09792 0.824927L9.04766 0.813507H117.217L118.178 0.825385C118.834 0.832305 119.487 0.883137 120.134 0.977448C120.746 1.06974 121.339 1.24243 121.893 1.48983C122.985 1.99005 123.874 2.78144 124.435 3.75308C124.709 4.23895 124.899 4.75889 124.998 5.29524C125.107 5.87884 125.169 6.46875 125.181 7.06027C125.184 7.32513 125.184 7.60964 125.184 7.89277C125.193 8.2435 125.193 8.57732 125.193 8.91388V28.4875C125.193 28.8273 125.193 29.1589 125.184 29.4931C125.184 29.7973 125.184 30.0759 125.18 30.3626C125.168 30.9436 125.108 31.523 125 32.0961C124.902 32.6396 124.71 33.1663 124.432 33.658C124.154 34.1372 123.794 34.5746 123.363 34.954C122.933 35.341 122.436 35.6639 121.89 35.9103C121.337 36.1591 120.745 36.3324 120.134 36.4245C119.484 36.5189 118.826 36.5699 118.167 36.577C117.859 36.5834 117.536 36.587 117.222 36.587L116.081 36.5889L9.04714 36.587Z" fill="black"/>
<path d="M30.8109 18.9824C30.8209 18.2019 31.0274 17.4367 31.4112 16.7579C31.7949 16.0791 32.3435 15.5087 33.0058 15.0999C32.585 14.4967 32.03 14.0002 31.3847 13.65C30.7394 13.2998 30.0217 13.1054 29.2885 13.0824C27.7245 12.9176 26.2082 14.022 25.4113 14.022C24.5988 14.022 23.3718 13.0987 22.0504 13.126C21.1957 13.1538 20.3627 13.4033 19.6326 13.8503C18.9025 14.2973 18.3002 14.9266 17.8844 15.6768C16.0831 18.8077 17.4267 23.4092 19.1522 25.9401C20.0155 27.1793 21.0244 28.5637 22.3446 28.5146C23.6365 28.4608 24.119 27.6875 25.6784 27.6875C27.2233 27.6875 27.676 28.5146 29.023 28.4833C30.4092 28.4608 31.2826 27.2386 32.1156 25.9875C32.7359 25.1045 33.2132 24.1286 33.5298 23.0959C32.7245 22.7539 32.0372 22.1815 31.5537 21.45C31.0702 20.7185 30.8119 19.8603 30.8109 18.9824Z" fill="white"/>
<path d="M28.2667 11.4179C29.0226 10.507 29.395 9.33611 29.3048 8.15398C28.15 8.27574 27.0834 8.82982 26.3173 9.70581C25.9428 10.1338 25.6559 10.6316 25.4731 11.1709C25.2904 11.7102 25.2152 12.2804 25.2521 12.8489C25.8297 12.8549 26.4011 12.7292 26.9233 12.4813C27.4455 12.2335 27.9048 11.8699 28.2667 11.4179Z" fill="white"/>
<path d="M47.1411 25.3772H42.7325L41.6738 28.5157H39.8065L43.9823 16.9041H45.9223L50.098 28.5157H48.1989L47.1411 25.3772ZM43.1891 23.9289H46.6836L44.961 18.8354H44.9127L43.1891 23.9289Z" fill="white"/>
<path d="M59.1162 24.2832C59.1162 26.914 57.7136 28.6042 55.5971 28.6042C55.061 28.6324 54.5278 28.5084 54.0585 28.2465C53.5893 27.9845 53.2031 27.5952 52.944 27.1231H52.9039V31.3163H51.1731V20.0499H52.8485V21.458H52.8803C53.1513 20.9881 53.5441 20.6008 54.0169 20.3373C54.4897 20.0738 55.0248 19.9438 55.5653 19.9613C57.7054 19.9613 59.1162 21.6598 59.1162 24.2832ZM57.3371 24.2832C57.3371 22.5693 56.4548 21.4424 55.1087 21.4424C53.7862 21.4424 52.8967 22.593 52.8967 24.2832C52.8967 25.989 53.7862 27.1313 55.1087 27.1313C56.4548 27.1313 57.3371 26.0127 57.3371 24.2832Z" fill="white"/>
<path d="M68.3972 24.2833C68.3972 26.914 66.9947 28.6042 64.8782 28.6042C64.342 28.6324 63.8088 28.5084 63.3396 28.2465C62.8704 27.9845 62.4841 27.5952 62.225 27.1231H62.185V31.3163H60.4541V20.0499H62.1295V21.458H62.1613C62.4323 20.9881 62.8251 20.6009 63.2979 20.3373C63.7707 20.0738 64.3058 19.9438 64.8463 19.9613C66.9865 19.9613 68.3972 21.6598 68.3972 24.2833ZM66.6181 24.2833C66.6181 22.5693 65.7359 21.4425 64.3897 21.4425C63.0673 21.4425 62.1777 22.593 62.1777 24.2833C62.1777 25.989 63.0673 27.1314 64.3897 27.1314C65.7359 27.1314 66.6181 26.0127 66.6181 24.2833H66.6181Z" fill="white"/>
<path d="M74.5312 25.2804C74.6594 26.4319 75.7737 27.1879 77.2962 27.1879C78.7551 27.1879 79.8047 26.4318 79.8047 25.3936C79.8047 24.4923 79.1717 23.9527 77.6728 23.5828L76.1738 23.2203C74.0501 22.7053 73.0641 21.7081 73.0641 20.09C73.0641 18.0866 74.8032 16.7105 77.2726 16.7105C79.7165 16.7105 81.3919 18.0866 81.4483 20.09H79.701C79.5964 18.9313 78.6423 18.2318 77.248 18.2318C75.8537 18.2318 74.8995 18.9395 74.8995 19.9695C74.8995 20.7904 75.5089 21.2735 76.9997 21.6433L78.274 21.9574C80.647 22.5208 81.6329 23.4778 81.6329 25.1762C81.6329 27.3486 79.9093 28.7092 77.1679 28.7092C74.603 28.7092 72.8712 27.3806 72.7594 25.2803L74.5312 25.2804Z" fill="white"/>
<path d="M85.3684 18.0465V20.0499H86.972V21.426H85.3684V26.0931C85.3684 26.8181 85.6895 27.156 86.3944 27.156C86.5848 27.1527 86.7748 27.1392 86.9638 27.1158V28.4837C86.6469 28.5431 86.3247 28.5701 86.0024 28.564C84.2952 28.564 83.6294 27.9203 83.6294 26.2784V21.426H82.4033V20.0499H83.6294V18.0465H85.3684Z" fill="white"/>
<path d="M87.9006 24.2833C87.9006 21.6196 89.4632 19.9458 91.8999 19.9458C94.3448 19.9458 95.9001 21.6196 95.9001 24.2833C95.9001 26.9542 94.353 28.6207 91.8999 28.6207C89.4477 28.6207 87.9006 26.9542 87.9006 24.2833ZM94.1365 24.2833C94.1365 22.4561 93.3024 21.3776 91.8999 21.3776C90.4974 21.3776 89.6642 22.4643 89.6642 24.2833C89.6642 26.1178 90.4974 27.188 91.8999 27.188C93.3024 27.188 94.1364 26.1178 94.1364 24.2833H94.1365Z" fill="white"/>
<path d="M97.3272 20.0499H98.978V21.4908H99.018C99.1297 21.0408 99.3923 20.6431 99.7617 20.3645C100.131 20.086 100.585 19.9436 101.046 19.9613C101.246 19.9606 101.445 19.9824 101.639 20.0261V21.6515C101.388 21.5743 101.125 21.5388 100.862 21.5465C100.61 21.5363 100.36 21.5808 100.127 21.677C99.8941 21.7732 99.6849 21.9188 99.5136 22.1039C99.3422 22.2889 99.2128 22.509 99.1341 22.749C99.0555 22.989 99.0295 23.2432 99.058 23.4943V28.5157H97.3271L97.3272 20.0499Z" fill="white"/>
<path d="M109.62 26.0292C109.387 27.566 107.896 28.6207 105.989 28.6207C103.536 28.6207 102.013 26.9706 102.013 24.3234C102.013 21.668 103.544 19.9458 105.916 19.9458C108.249 19.9458 109.716 21.5548 109.716 24.1216V24.717H103.76V24.822C103.733 25.1336 103.772 25.4474 103.874 25.7428C103.977 26.0381 104.141 26.3081 104.356 26.5349C104.57 26.7617 104.83 26.9401 105.119 27.0582C105.407 27.1763 105.717 27.2314 106.029 27.2199C106.438 27.2584 106.848 27.1633 107.199 26.9487C107.55 26.7342 107.822 26.4117 107.976 26.0292L109.62 26.0292ZM103.769 23.5025H107.984C108 23.2224 107.958 22.942 107.86 22.6791C107.763 22.4161 107.612 22.1763 107.418 21.9745C107.224 21.7728 106.99 21.6135 106.731 21.5067C106.473 21.3999 106.195 21.3479 105.916 21.3539C105.634 21.3522 105.355 21.4066 105.094 21.5139C104.833 21.6211 104.596 21.7792 104.396 21.979C104.197 22.1788 104.038 22.4162 103.931 22.6777C103.823 22.9392 103.768 23.2195 103.769 23.5025V23.5025Z" fill="white"/>
<path d="M42.9721 8.16402C43.335 8.13787 43.6992 8.19291 44.0383 8.32516C44.3774 8.45741 44.6831 8.66357 44.9332 8.92878C45.1834 9.19398 45.3718 9.51162 45.4849 9.85878C45.5979 10.2059 45.6328 10.574 45.5871 10.9363C45.5871 12.7188 44.6275 13.7434 42.9721 13.7434H40.9648V8.16402H42.9721ZM41.8279 12.9543H42.8757C43.135 12.9699 43.3945 12.9272 43.6353 12.8294C43.8761 12.7316 44.0922 12.5811 44.2677 12.3889C44.4433 12.1966 44.5739 11.9675 44.6502 11.7182C44.7264 11.4689 44.7463 11.2057 44.7085 10.9477C44.7436 10.6907 44.7217 10.4291 44.6442 10.1816C44.5668 9.93415 44.4358 9.70692 44.2607 9.51624C44.0855 9.32555 43.8705 9.17612 43.6311 9.07865C43.3917 8.98119 43.1337 8.93809 42.8757 8.95247H41.8279V12.9543Z" fill="white"/>
<path d="M46.5621 11.6362C46.5358 11.3595 46.5673 11.0803 46.6547 10.8166C46.7421 10.5528 46.8834 10.3103 47.0696 10.1046C47.2559 9.89893 47.4829 9.73458 47.7361 9.62211C47.9892 9.50965 48.2631 9.45155 48.5399 9.45155C48.8168 9.45155 49.0906 9.50965 49.3438 9.62211C49.597 9.73458 49.824 9.89893 50.0102 10.1046C50.1964 10.3103 50.3378 10.5528 50.4252 10.8166C50.5126 11.0803 50.5441 11.3595 50.5177 11.6362C50.5446 11.9132 50.5135 12.1928 50.4263 12.4569C50.3391 12.7211 50.1979 12.9641 50.0116 13.1702C49.8253 13.3763 49.5982 13.541 49.3447 13.6537C49.0913 13.7664 48.8171 13.8246 48.5399 13.8246C48.2627 13.8246 47.9886 13.7664 47.7351 13.6537C47.4817 13.541 47.2545 13.3763 47.0683 13.1702C46.882 12.9641 46.7407 12.7211 46.6536 12.4569C46.5664 12.1928 46.5353 11.9132 46.5621 11.6362ZM49.6664 11.6362C49.6664 10.7235 49.258 10.1898 48.5413 10.1898C47.8218 10.1898 47.4171 10.7235 47.4171 11.6362C47.4171 12.5562 47.8219 13.0858 48.5413 13.0858C49.258 13.0858 49.6664 12.5525 49.6664 11.6362H49.6664Z" fill="white"/>
<path d="M55.7758 13.7433H54.9172L54.0504 10.6422H53.985L53.1218 13.7433H52.2714L51.1153 9.53278H51.9548L52.7061 12.7456H52.768L53.6302 9.53278H54.4243L55.2865 12.7456H55.352L56.0996 9.53278H56.9273L55.7758 13.7433Z" fill="white"/>
<path d="M57.8997 9.53278H58.6964V10.2017H58.7583C58.8632 9.96142 59.0402 9.76003 59.2645 9.62556C59.4888 9.4911 59.7494 9.43025 60.0098 9.4515C60.2139 9.4361 60.4188 9.46699 60.6093 9.54188C60.7999 9.61678 60.9712 9.73376 61.1106 9.88416C61.25 10.0346 61.354 10.2145 61.4147 10.4107C61.4754 10.6069 61.4914 10.8143 61.4614 11.0175V13.7432H60.6338V11.2262C60.6338 10.5496 60.3409 10.2131 59.7288 10.2131C59.5902 10.2066 59.4519 10.2303 59.3233 10.2825C59.1947 10.3347 59.0789 10.4142 58.9838 10.5155C58.8887 10.6169 58.8165 10.7377 58.7723 10.8696C58.728 11.0016 58.7127 11.1416 58.7273 11.2801V13.7433H57.8997L57.8997 9.53278Z" fill="white"/>
<path d="M62.7803 7.8891H63.608V13.7433H62.7803V7.8891Z" fill="white"/>
<path d="M64.7585 11.6362C64.7322 11.3595 64.7637 11.0803 64.8512 10.8165C64.9386 10.5528 65.08 10.3103 65.2662 10.1046C65.4524 9.89886 65.6794 9.73451 65.9327 9.62204C66.1859 9.50957 66.4597 9.45148 66.7366 9.45148C67.0135 9.45148 67.2873 9.50957 67.5405 9.62204C67.7937 9.73451 68.0207 9.89886 68.207 10.1046C68.3932 10.3103 68.5346 10.5528 68.622 10.8165C68.7094 11.0803 68.741 11.3595 68.7146 11.6362C68.7414 11.9132 68.7103 12.1928 68.6231 12.457C68.5359 12.7211 68.3946 12.9641 68.2083 13.1702C68.022 13.3763 67.7948 13.5409 67.5414 13.6536C67.2879 13.7664 67.0138 13.8246 66.7366 13.8246C66.4594 13.8246 66.1852 13.7664 65.9318 13.6536C65.6783 13.5409 65.4511 13.3763 65.2649 13.1702C65.0786 12.9641 64.9373 12.7211 64.8501 12.457C64.7629 12.1928 64.7317 11.9132 64.7585 11.6362ZM67.8628 11.6362C67.8628 10.7235 67.4544 10.1898 66.7377 10.1898C66.0183 10.1898 65.6135 10.7235 65.6135 11.6362C65.6135 12.5562 66.0183 13.0858 66.7377 13.0858C67.4544 13.0858 67.8628 12.5526 67.8628 11.6362H67.8628Z" fill="white"/>
<path d="M69.586 12.5525C69.586 11.7946 70.1481 11.3577 71.1458 11.2956L72.2819 11.2299V10.8664C72.2819 10.4217 71.989 10.1706 71.4233 10.1706C70.9612 10.1706 70.641 10.3409 70.5492 10.6386H69.7479C69.8325 9.91538 70.5101 9.45151 71.4615 9.45151C72.5129 9.45151 73.1059 9.97701 73.1059 10.8664V13.7433H72.3092V13.1516H72.2437C72.1107 13.3638 71.9241 13.5369 71.7028 13.653C71.4815 13.7691 71.2334 13.8242 70.9839 13.8127C70.8079 13.831 70.6299 13.8122 70.4616 13.7573C70.2932 13.7024 70.1382 13.6127 70.0065 13.494C69.8748 13.3753 69.7693 13.2301 69.6969 13.068C69.6244 12.9058 69.5867 12.7303 69.586 12.5525ZM72.2819 12.1928V11.8407L71.2577 11.9065C70.6802 11.9453 70.4182 12.1425 70.4182 12.5137C70.4182 12.8927 70.7456 13.1132 71.1959 13.1132C71.3278 13.1266 71.4611 13.1132 71.5878 13.0739C71.7144 13.0345 71.8319 12.97 71.9332 12.8841C72.0346 12.7982 72.1176 12.6928 72.1775 12.574C72.2374 12.4552 72.2729 12.3256 72.2819 12.1928Z" fill="white"/>
<path d="M74.1937 11.6362C74.1937 10.3058 74.875 9.46292 75.9346 9.46292C76.1967 9.45079 76.4568 9.51382 76.6846 9.64463C76.9123 9.77544 77.0983 9.96863 77.2207 10.2016H77.2826V7.8891H78.1102V13.7433H77.3171V13.078H77.2516C77.1197 13.3095 76.9273 13.5002 76.6952 13.6297C76.463 13.7592 76.2 13.8225 75.9346 13.8127C74.8677 13.8127 74.1937 12.9698 74.1937 11.6362ZM75.0487 11.6362C75.0487 12.5293 75.468 13.0666 76.1693 13.0666C76.8669 13.0666 77.298 12.5215 77.298 11.6399C77.298 10.7623 76.8624 10.2094 76.1693 10.2094C75.4726 10.2094 75.0487 10.7504 75.0487 11.6362H75.0487Z" fill="white"/>
<path d="M81.5347 11.6362C81.5083 11.3595 81.5398 11.0803 81.6272 10.8166C81.7146 10.5528 81.856 10.3103 82.0422 10.1046C82.2284 9.89893 82.4554 9.73458 82.7086 9.62211C82.9618 9.50965 83.2356 9.45155 83.5125 9.45155C83.7893 9.45155 84.0631 9.50965 84.3163 9.62211C84.5695 9.73458 84.7965 9.89893 84.9827 10.1046C85.169 10.3103 85.3103 10.5528 85.3977 10.8166C85.4851 11.0803 85.5166 11.3595 85.4903 11.6362C85.5171 11.9132 85.486 12.1928 85.3988 12.4569C85.3116 12.7211 85.1704 12.9641 84.9841 13.1702C84.7978 13.3763 84.5707 13.541 84.3172 13.6537C84.0638 13.7664 83.7897 13.8246 83.5125 13.8246C83.2353 13.8246 82.9611 13.7664 82.7077 13.6537C82.4542 13.541 82.2271 13.3763 82.0408 13.1702C81.8545 12.9641 81.7133 12.7211 81.6261 12.4569C81.5389 12.1928 81.5078 11.9132 81.5347 11.6362ZM84.6389 11.6362C84.6389 10.7235 84.2305 10.1898 83.5138 10.1898C82.7944 10.1898 82.3897 10.7235 82.3897 11.6362C82.3897 12.5562 82.7944 13.0858 83.5138 13.0858C84.2305 13.0858 84.6389 12.5525 84.6389 11.6362Z" fill="white"/>
<path d="M86.6009 9.53278H87.3976V10.2017H87.4595C87.5644 9.96142 87.7414 9.76003 87.9657 9.62556C88.19 9.4911 88.4506 9.43025 88.711 9.4515C88.9151 9.4361 89.12 9.46699 89.3105 9.54188C89.5011 9.61678 89.6724 9.73376 89.8118 9.88416C89.9512 10.0346 90.0552 10.2145 90.1159 10.4107C90.1766 10.6069 90.1926 10.8143 90.1626 11.0175V13.7432H89.335V11.2262C89.335 10.5496 89.0421 10.2131 88.43 10.2131C88.2914 10.2066 88.1531 10.2303 88.0245 10.2825C87.8959 10.3347 87.7801 10.4142 87.685 10.5155C87.5899 10.6169 87.5177 10.7377 87.4735 10.8696C87.4292 11.0016 87.4139 11.1416 87.4285 11.2801V13.7433H86.6009V9.53278Z" fill="white"/>
<path d="M94.8395 8.48448V9.55195H95.7482V10.2519H94.8395V12.4169C94.8395 12.858 95.0205 13.0511 95.4326 13.0511C95.538 13.0508 95.6434 13.0444 95.7482 13.0319V13.7241C95.5995 13.7508 95.4489 13.765 95.2979 13.7666C94.3775 13.7666 94.0109 13.4415 94.0109 12.6297V10.2518H93.3452V9.55191H94.0109V8.48448H94.8395Z" fill="white"/>
<path d="M96.8787 7.8891H97.6991V10.2094H97.7646C97.8746 9.96692 98.0565 9.7644 98.2853 9.62942C98.5141 9.49445 98.7789 9.43359 99.0434 9.45515C99.2464 9.44406 99.4493 9.47808 99.6377 9.5548C99.8261 9.63151 99.9953 9.74902 100.133 9.89895C100.271 10.0489 100.375 10.2275 100.436 10.4221C100.497 10.6168 100.515 10.8226 100.488 11.0248V13.7433H99.6592V11.2298C99.6592 10.5573 99.3472 10.2167 98.7624 10.2167C98.6202 10.205 98.4771 10.2246 98.3432 10.2742C98.2093 10.3238 98.0878 10.4022 97.9872 10.5039C97.8866 10.6056 97.8094 10.7281 97.7609 10.8629C97.7124 10.9976 97.6938 11.1414 97.7064 11.2842V13.7433H96.8788L96.8787 7.8891Z" fill="white"/>
<path d="M105.314 12.6064C105.201 12.9912 104.958 13.3241 104.626 13.5468C104.293 13.7695 103.894 13.8678 103.497 13.8245C103.22 13.8319 102.946 13.7787 102.692 13.6688C102.438 13.5589 102.211 13.3949 102.027 13.1881C101.842 12.9814 101.705 12.7368 101.624 12.4714C101.544 12.206 101.521 11.9262 101.559 11.6513C101.522 11.3755 101.545 11.0951 101.626 10.8289C101.706 10.5627 101.843 10.317 102.026 10.1084C102.209 9.89983 102.435 9.73323 102.688 9.61989C102.941 9.50656 103.216 9.44913 103.493 9.4515C104.66 9.4515 105.364 10.2519 105.364 11.5741V11.864H102.402V11.9106C102.389 12.0651 102.409 12.2207 102.459 12.3672C102.51 12.5138 102.59 12.6482 102.695 12.7617C102.8 12.8753 102.928 12.9656 103.07 13.0267C103.212 13.0879 103.365 13.1186 103.519 13.1168C103.717 13.1407 103.918 13.1049 104.096 13.014C104.273 12.9231 104.42 12.7812 104.517 12.6064L105.314 12.6064ZM102.402 11.2495H104.521C104.531 11.1082 104.512 10.9662 104.465 10.8328C104.417 10.6993 104.342 10.5773 104.245 10.4746C104.148 10.3719 104.03 10.2907 103.9 10.2363C103.77 10.1819 103.629 10.1555 103.488 10.1587C103.345 10.1569 103.203 10.1839 103.071 10.2381C102.938 10.2923 102.817 10.3726 102.716 10.4742C102.615 10.5759 102.535 10.6968 102.481 10.83C102.427 10.9631 102.401 11.1058 102.402 11.2495H102.402Z" fill="white"/>
</g>
<defs>
<clipPath id="clip0_88_4146">
<rect width="125.736" height="37.4024" fill="white" transform="translate(0.264282)"/>
</clipPath>
</defs>
</svg>
