<svg width="126" height="38" viewBox="0 0 126 38" fill="none" xmlns="http://www.w3.org/2000/svg">
<g clip-path="url(#clip0_88_4125)">
<path d="M121.079 0H4.65688C2.08496 0 0 2.09319 0 4.67528V32.7269C0 35.309 2.08496 37.4022 4.65688 37.4022H121.079C123.651 37.4022 125.736 35.309 125.736 32.7269V4.67528C125.736 2.09319 123.651 0 121.079 0Z" fill="black"/>
<path d="M121.079 0.748056C122.116 0.749259 123.11 1.16343 123.844 1.89972C124.577 2.636 124.989 3.63425 124.991 4.67548V32.7271C124.989 33.7684 124.577 34.7666 123.844 35.5029C123.11 36.2392 122.116 36.6533 121.079 36.6546H4.65688C3.61975 36.6534 2.62544 36.2392 1.89209 35.5029C1.15874 34.7666 0.746247 33.7684 0.745101 32.7271V4.67548C0.74623 3.63424 1.15872 2.63597 1.89207 1.89969C2.62542 1.16341 3.61974 0.749239 4.65688 0.748056H121.079ZM121.079 0.000198364H4.65688C3.42291 0.0038246 2.24051 0.497561 1.36796 1.37356C0.495406 2.24956 0.00361197 3.43663 0 4.67548L0 32.7271C0.00361197 33.966 0.495406 35.1531 1.36796 36.0291C2.24051 36.9051 3.42291 37.3988 4.65688 37.4024H121.079C122.313 37.3988 123.495 36.9051 124.368 36.0291C125.24 35.1531 125.732 33.966 125.736 32.7271V4.67548C125.732 3.43663 125.24 2.24956 124.368 1.37356C123.495 0.497561 122.313 0.0038246 121.079 0.000198364Z" fill="#A6A6A6"/>
<path d="M44.1643 9.57806C44.1813 9.92117 44.1285 10.2642 44.0091 10.5861C43.8898 10.9081 43.7065 11.2023 43.4703 11.4509C43.2056 11.7265 42.8859 11.9429 42.5321 12.0859C42.1784 12.229 41.7985 12.2954 41.4174 12.2809C41.0339 12.2844 40.6536 12.2108 40.2988 12.0646C39.944 11.9184 39.6219 11.7024 39.3514 11.4294C39.0809 11.1564 38.8675 10.8319 38.7238 10.4749C38.58 10.1179 38.5088 9.73567 38.5142 9.35065C38.5088 8.96563 38.5801 8.5834 38.7238 8.22641C38.8676 7.86942 39.081 7.54488 39.3514 7.27185C39.6219 6.99882 39.944 6.78281 40.2988 6.63651C40.6536 6.49021 41.0339 6.41657 41.4174 6.41991C41.8118 6.41871 42.2021 6.49875 42.5644 6.65508C42.9009 6.79201 43.2004 7.00679 43.4385 7.28194L42.9473 7.77546C42.7601 7.55427 42.5248 7.37922 42.2596 7.2638C41.9943 7.14838 41.7062 7.09569 41.4174 7.10979C41.1268 7.10828 40.8388 7.16568 40.5707 7.27855C40.3027 7.39143 40.0601 7.55745 39.8575 7.76668C39.6549 7.9759 39.4964 8.22404 39.3915 8.49621C39.2867 8.76838 39.2376 9.059 39.2473 9.35065C39.2404 9.78751 39.3628 10.2166 39.5991 10.5835C39.8354 10.9504 40.1749 11.2386 40.5746 11.4115C40.9742 11.5845 41.416 11.6344 41.8439 11.5549C42.2719 11.4754 42.6667 11.2701 42.9782 10.9651C43.265 10.6549 43.4312 10.2516 43.4466 9.82865H41.4174V9.15476H44.1252C44.1508 9.2944 44.1639 9.43607 44.1643 9.57806Z" fill="white" stroke="white" stroke-width="0.250148" stroke-miterlimit="10"/>
<path d="M48.4573 7.23489H45.9125V9.01364H48.2073V9.68763H45.9125V11.4664H48.4573V12.1558H45.1948V6.54547H48.4573V7.23489Z" fill="white" stroke="white" stroke-width="0.250148" stroke-miterlimit="10"/>
<path d="M51.4853 12.1558H50.7667V7.23489H49.2059V6.54547H53.0461V7.23489H51.4853V12.1558Z" fill="white" stroke="white" stroke-width="0.250148" stroke-miterlimit="10"/>
<path d="M55.8247 12.1558V6.54547H56.5423V12.1558H55.8247Z" fill="white" stroke="white" stroke-width="0.250148" stroke-miterlimit="10"/>
<path d="M59.7275 12.1558H59.009V7.23489H57.4483V6.54547H61.2883V7.23489H59.7275V12.1558Z" fill="white" stroke="white" stroke-width="0.250148" stroke-miterlimit="10"/>
<path d="M68.5579 11.4308C68.014 11.9752 67.2773 12.2809 66.5092 12.2809C65.7411 12.2809 65.0044 11.9752 64.4604 11.4308C64.1913 11.1571 63.9798 10.832 63.8384 10.4746C63.697 10.1173 63.6286 9.73505 63.6373 9.35064C63.6286 8.96622 63.697 8.58398 63.8384 8.22663C63.9798 7.86928 64.1913 7.54413 64.4604 7.27051C64.7293 7.00053 65.0485 6.78643 65.3999 6.64047C65.7513 6.49451 66.1279 6.41955 66.5081 6.41989C66.8884 6.42023 67.2648 6.49586 67.6159 6.64244C67.9671 6.78903 68.2859 7.0037 68.5543 7.27416C68.8236 7.54706 69.0355 7.87148 69.1775 8.22818C69.3196 8.58487 69.3888 8.96657 69.3811 9.35064C69.3895 9.73502 69.321 10.1172 69.1796 10.4745C69.0382 10.8318 68.8268 11.157 68.5579 11.4308ZM64.9907 10.961C65.3935 11.3647 65.9395 11.5915 66.5087 11.5915C67.0779 11.5915 67.6239 11.3647 68.0268 10.961C68.2333 10.7487 68.3949 10.4965 68.5017 10.2197C68.6084 9.94291 68.6582 9.64727 68.648 9.35064C68.6582 9.054 68.6084 8.75836 68.5017 8.48157C68.3949 8.20479 68.2333 7.95262 68.0268 7.74028C67.6239 7.33653 67.0779 7.10977 66.5087 7.10977C65.9395 7.10977 65.3935 7.33653 64.9907 7.74028C64.7844 7.95278 64.6231 8.20501 64.5165 8.48177C64.4099 8.75852 64.3602 9.05408 64.3704 9.35064C64.3602 9.64719 64.4099 9.94275 64.5165 10.2195C64.6231 10.4963 64.7844 10.7485 64.9907 10.961Z" fill="white" stroke="white" stroke-width="0.250148" stroke-miterlimit="10"/>
<path d="M70.3888 12.1558V6.54547H71.2629L73.9788 10.9098H74.0097L73.9788 9.82864V6.54547H74.6974V12.1558H73.9479L71.1064 7.58002H71.0755L71.1064 8.66122V12.1558H70.3888Z" fill="white" stroke="white" stroke-width="0.250148" stroke-miterlimit="10"/>
<path d="M63.46 20.3391C62.6772 20.342 61.9128 20.5778 61.2633 21.0166C60.6139 21.4554 60.1085 22.0776 59.811 22.8045C59.5135 23.5315 59.4371 24.3306 59.5917 25.1011C59.7462 25.8716 60.1247 26.5788 60.6793 27.1335C61.2339 27.6881 61.9398 28.0654 62.7078 28.2176C63.4758 28.3699 64.2715 28.2902 64.9945 27.9888C65.7174 27.6873 66.3352 27.1775 66.7698 26.5239C67.2044 25.8702 67.4364 25.1019 67.4363 24.3159C67.444 23.7903 67.3463 23.2684 67.149 22.7814C66.9517 22.2944 66.6589 21.8523 66.2879 21.4812C65.9169 21.1102 65.4754 20.8179 64.9896 20.6217C64.5038 20.4254 63.9836 20.3293 63.46 20.3391ZM63.46 26.7262C62.9779 26.7607 62.4966 26.6487 62.0788 26.4048C61.661 26.1608 61.3261 25.7963 61.1175 25.3585C60.909 24.9208 60.8366 24.4301 60.9097 23.9505C60.9828 23.4708 61.1981 23.0244 61.5274 22.6693C61.8568 22.3142 62.2851 22.0668 62.7564 21.9595C63.2278 21.8521 63.7204 21.8898 64.1702 22.0674C64.6199 22.2451 65.006 22.5546 65.2781 22.9557C65.5502 23.3567 65.6957 23.8307 65.6957 24.3159C65.7103 24.6225 65.6637 24.9289 65.5586 25.2171C65.4535 25.5053 65.2921 25.7694 65.0837 25.994C64.8754 26.2186 64.6244 26.3991 64.3456 26.5249C64.0667 26.6506 63.7656 26.7191 63.46 26.7262ZM54.7857 20.3391C54.0029 20.342 53.2385 20.5778 52.589 21.0166C51.9396 21.4554 51.4342 22.0775 51.1366 22.8045C50.8391 23.5314 50.7628 24.3306 50.9173 25.101C51.0718 25.8715 51.4503 26.5787 52.0049 27.1334C52.5595 27.6881 53.2654 28.0654 54.0334 28.2176C54.8014 28.3699 55.5971 28.2902 56.3201 27.9888C57.043 27.6873 57.6608 27.1776 58.0954 26.5239C58.53 25.8702 58.762 25.1019 58.762 24.3159C58.7697 23.7903 58.672 23.2684 58.4747 22.7815C58.2774 22.2945 57.9845 21.8523 57.6136 21.4813C57.2426 21.1102 56.8011 20.8179 56.3153 20.6217C55.8295 20.4255 55.3093 20.3293 54.7857 20.3391ZM54.7857 26.7262C54.3036 26.7607 53.8224 26.6487 53.4046 26.4048C52.9868 26.1608 52.6518 25.7963 52.4433 25.3585C52.2347 24.9208 52.1623 24.4301 52.2354 23.9505C52.3085 23.4708 52.5238 23.0244 52.8532 22.6693C53.1826 22.3142 53.6108 22.0668 54.0822 21.9595C54.5535 21.8521 55.0461 21.8898 55.4959 22.0674C55.9456 22.2451 56.3317 22.5546 56.6038 22.9557C56.8759 23.3567 57.0214 23.8307 57.0214 24.3159C57.0361 24.6225 56.9895 24.9289 56.8844 25.2171C56.7793 25.5053 56.6178 25.7694 56.4095 25.994C56.2012 26.2186 55.9502 26.3991 55.6713 26.5249C55.3925 26.6506 55.0914 26.7191 54.7857 26.7262ZM44.4672 21.5593V23.2464H48.4886C48.4306 24.0378 48.1081 24.7862 47.5733 25.3705C47.1703 25.7829 46.6857 26.1059 46.1507 26.3186C45.6157 26.5314 45.0422 26.6292 44.4672 26.6057C43.2918 26.5897 42.1699 26.1097 41.3444 25.2696C40.5188 24.4295 40.0559 23.2968 40.0559 22.1166C40.0559 20.9364 40.5188 19.8037 41.3444 18.9636C42.1699 18.1234 43.2918 17.6435 44.4672 17.6275C45.5962 17.6127 46.6855 18.0457 47.4983 18.8326L48.6837 17.6425C48.1291 17.0913 47.4705 16.6568 46.7464 16.3645C46.0224 16.0722 45.2475 15.928 44.4672 15.9403C43.6518 15.9284 42.8421 16.0793 42.0853 16.3843C41.3285 16.6894 40.6397 17.1424 40.0588 17.7171C39.478 18.2918 39.0168 18.9767 38.7019 19.732C38.3871 20.4873 38.225 21.2979 38.225 22.1166C38.225 22.9353 38.3871 23.7459 38.7019 24.5012C39.0168 25.2564 39.478 25.9413 40.0588 26.5161C40.6397 27.0908 41.3285 27.5438 42.0853 27.8488C42.8421 28.1539 43.6518 28.3048 44.4672 28.2929C45.264 28.3261 46.0587 28.1888 46.7985 27.8901C47.5384 27.5914 48.2065 27.1382 48.7586 26.5605C49.7388 25.4864 50.2613 24.0697 50.2142 22.6138C50.218 22.2602 50.1878 21.9071 50.124 21.5593H44.4672ZM86.6663 22.8698C86.4282 22.1494 85.975 21.5201 85.3683 21.0674C84.7616 20.6146 84.0308 20.3603 83.2751 20.3391C82.7662 20.3422 82.2631 20.449 81.7964 20.6529C81.3297 20.8567 80.909 21.1535 80.5598 21.5252C80.2106 21.897 79.9401 22.3359 79.7646 22.8156C79.5892 23.2952 79.5124 23.8057 79.539 24.3159C79.5275 24.8388 79.6212 25.3586 79.8143 25.8443C80.0074 26.3301 80.2961 26.7717 80.663 27.143C81.03 27.5142 81.4677 27.8073 81.95 28.0049C82.4323 28.2025 82.9494 28.3004 83.4703 28.2929C84.1228 28.2965 84.7661 28.1374 85.3422 27.8298C85.9184 27.5221 86.4094 27.0757 86.7712 26.5304L85.4208 25.6266C85.2185 25.9639 84.9324 26.2426 84.5904 26.4354C84.2484 26.6282 83.8624 26.7284 83.4703 26.7262C83.0667 26.7417 82.6678 26.6351 82.3253 26.4202C81.9828 26.2053 81.7126 25.8921 81.5496 25.5211L86.8464 23.3218L86.6663 22.8698ZM81.2646 24.1955C81.2459 23.906 81.285 23.6158 81.3794 23.3416C81.4738 23.0675 81.6218 22.8151 81.8146 22.599C82.0074 22.383 82.2412 22.2078 82.5023 22.0836C82.7634 21.9593 83.0465 21.8887 83.3351 21.8756C83.6357 21.8558 83.9354 21.9252 84.1969 22.0752C84.4584 22.2252 84.6701 22.4492 84.8057 22.7192L81.2646 24.1955ZM76.9581 28.0519H78.6986V16.3622H76.9581V28.0519ZM74.1071 21.2278H74.0472C73.7825 20.9392 73.4596 20.7106 73.0999 20.5573C72.7402 20.404 72.3521 20.3296 71.9614 20.3391C70.94 20.3827 69.9748 20.8208 69.2675 21.5618C68.5601 22.3029 68.1652 23.2896 68.1652 24.316C68.1652 25.3424 68.5601 26.3291 69.2675 27.0702C69.9748 27.8112 70.94 28.2493 71.9614 28.2929C72.3536 28.3034 72.7434 28.228 73.1036 28.0719C73.4638 27.9158 73.7858 27.6828 74.0472 27.3891H74.1071V27.9615C74.1071 29.4831 73.2969 30.2965 71.9914 30.2965C71.5564 30.286 71.1342 30.1457 70.7788 29.8936C70.4234 29.6414 70.1509 29.2887 69.9959 28.8804L68.4803 29.5132C68.766 30.2113 69.2527 30.808 69.8783 31.2267C70.5038 31.6453 71.2396 31.867 71.9914 31.8631C74.0322 31.8631 75.7577 30.658 75.7577 27.7205V20.58H74.1071V21.2278ZM72.1116 26.7262C71.51 26.675 70.9494 26.3989 70.5409 25.9525C70.1325 25.5062 69.9058 24.9221 69.9058 24.316C69.9058 23.7098 70.1325 23.1258 70.5409 22.6794C70.9494 22.2331 71.51 21.957 72.1116 21.9057C72.4109 21.9204 72.7042 21.9954 72.974 22.1263C73.2438 22.2572 73.4846 22.4413 73.682 22.6676C73.8794 22.894 74.0295 23.1579 74.1231 23.4436C74.2168 23.7294 74.2522 24.0312 74.2272 24.331C74.2506 24.6289 74.2139 24.9285 74.1193 25.2119C74.0247 25.4953 73.8742 25.7566 73.6767 25.9802C73.4791 26.2038 73.2387 26.3851 72.9698 26.5133C72.7009 26.6415 72.409 26.7139 72.1116 26.7262ZM94.8195 16.3624H90.6551V28.0519H92.3928V23.6231H94.8195C95.311 23.6501 95.8029 23.5763 96.265 23.4061C96.7272 23.2358 97.1499 22.9728 97.5074 22.633C97.8649 22.2933 98.1496 21.8839 98.3442 21.4299C98.5388 20.976 98.6392 20.4869 98.6392 19.9927C98.6392 19.4985 98.5388 19.0095 98.3442 18.5555C98.1496 18.1015 97.8649 17.6921 97.5074 17.3524C97.1499 17.0126 96.7272 16.7496 96.265 16.5794C95.8029 16.4091 95.311 16.3353 94.8195 16.3624ZM94.8643 21.9962H92.3928V17.9893H94.8643C95.1299 17.9837 95.3939 18.0315 95.6408 18.1297C95.8877 18.2279 96.1127 18.3746 96.3024 18.5612C96.4922 18.7477 96.6429 18.9705 96.7458 19.2163C96.8487 19.4621 96.9017 19.7261 96.9017 19.9928C96.9017 20.2594 96.8487 20.5234 96.7458 20.7692C96.6429 21.015 96.4922 21.2378 96.3024 21.4243C96.1127 21.6109 95.8877 21.7576 95.6408 21.8558C95.3939 21.954 95.1299 22.0018 94.8643 21.9962ZM105.605 20.3175C104.97 20.2804 104.339 20.4299 103.788 20.7478C103.237 21.0657 102.791 21.5382 102.504 22.1071L104.047 22.7538C104.2 22.4714 104.431 22.2399 104.713 22.0877C104.995 21.9354 105.316 21.869 105.635 21.8966C106.075 21.8534 106.515 21.9874 106.858 22.2693C107.201 22.5512 107.418 22.958 107.462 23.4004V23.5208C106.904 23.2231 106.282 23.0681 105.65 23.0696C103.987 23.0696 102.294 23.987 102.294 25.7014C102.31 26.0627 102.399 26.4171 102.554 26.7435C102.709 27.0699 102.928 27.3617 103.198 27.6015C103.467 27.8414 103.782 28.0244 104.123 28.1398C104.465 28.2551 104.826 28.3004 105.185 28.273C105.623 28.2989 106.059 28.2065 106.449 28.0055C106.839 27.8044 107.168 27.5022 107.402 27.1301H107.462V28.0324H109.14V23.5509C109.14 21.4755 107.597 20.3175 105.605 20.3175ZM105.395 26.724C104.826 26.724 104.032 26.4383 104.032 25.7314C104.032 24.8292 105.02 24.4832 105.874 24.4832C106.429 24.4684 106.977 24.6034 107.462 24.8743C107.398 25.3813 107.154 25.848 106.774 26.188C106.394 26.528 105.904 26.7184 105.395 26.724ZM115.252 20.5732L113.259 25.6412H113.199L111.132 20.5732H109.26L112.36 27.6564L110.593 31.5966H112.405L117.184 20.5732H115.252ZM99.5979 28.0519H101.335V16.3624H99.5979V28.0519Z" fill="white"/>
<path d="M9.7192 7.04854C9.41379 7.41515 9.25958 7.88513 9.28816 8.3622V29.042C9.25949 29.5191 9.41372 29.9891 9.7192 30.3556L9.78812 30.4231L21.3269 18.8387V18.5654L9.78812 6.98065L9.7192 7.04854Z" fill="url(#paint0_linear_88_4125)"/>
<path d="M25.1729 22.7018L21.3269 18.8387V18.5654L25.1739 14.7033L25.2606 14.7529L29.8176 17.3525C31.1193 18.0949 31.1193 19.3097 29.8176 20.0526L25.2606 22.6522L25.1729 22.7018Z" fill="url(#paint1_linear_88_4125)"/>
<path d="M25.2606 22.6517L21.3269 18.7021L9.71919 30.3556C9.98442 30.5905 10.3231 30.7248 10.6766 30.7353C11.0301 30.7457 11.3761 30.6318 11.6547 30.413L25.2606 22.6517Z" fill="url(#paint2_linear_88_4125)"/>
<path d="M25.2606 14.7525L11.6547 6.99113C11.3761 6.77241 11.0301 6.65842 10.6766 6.66891C10.3231 6.67939 9.98442 6.81369 9.71919 7.04854L21.3269 18.7021L25.2606 14.7525Z" fill="url(#paint3_linear_88_4125)"/>
<path opacity="0.2" d="M25.1739 22.5648L11.6547 30.2764C11.3868 30.4812 11.0599 30.5928 10.7233 30.5947C10.3867 30.5965 10.0586 30.4883 9.78858 30.2864L9.71919 30.3561L9.78811 30.4235L9.78858 30.4231C10.0585 30.625 10.3866 30.7332 10.7233 30.7314C11.06 30.7296 11.3869 30.6179 11.6547 30.4131L25.2606 22.6517L25.1739 22.5648Z" fill="black"/>
<path opacity="0.12" d="M9.71919 30.2195C9.41381 29.8529 9.25961 29.3829 9.28815 28.9058V29.0424C9.25959 29.5195 9.4138 29.9895 9.71919 30.3561L9.78858 30.2864L9.71919 30.2195Z" fill="black"/>
<path opacity="0.12" d="M29.8176 19.9156L25.1739 22.5648L25.2606 22.6517L29.8176 20.0522C30.0857 19.9354 30.3177 19.7486 30.4894 19.5112C30.6611 19.2738 30.7663 18.9946 30.794 18.7025C30.7364 18.967 30.6181 19.2143 30.4486 19.4249C30.2792 19.6355 30.0631 19.8035 29.8176 19.9156Z" fill="black"/>
<path opacity="0.25" d="M11.6547 7.1282L29.8176 17.4886C30.0632 17.6007 30.2793 17.7687 30.4488 17.9794C30.6183 18.1901 30.7365 18.4375 30.794 18.7021C30.7665 18.41 30.6614 18.1306 30.4896 17.8931C30.3179 17.6556 30.0858 17.4687 29.8176 17.352L11.6547 6.99159C10.353 6.24906 9.28815 6.86583 9.28815 8.36266V8.49927C9.28815 7.00253 10.353 6.38577 11.6547 7.1282Z" fill="white"/>
</g>
<defs>
<linearGradient id="paint0_linear_88_4125" x1="20.3037" y1="8.14415" x2="4.61131" y2="23.7748" gradientUnits="userSpaceOnUse">
<stop stop-color="#00A0FF"/>
<stop offset="0.00657" stop-color="#00A1FF"/>
<stop offset="0.2601" stop-color="#00BEFF"/>
<stop offset="0.5122" stop-color="#00D2FF"/>
<stop offset="0.7604" stop-color="#00DFFF"/>
<stop offset="1" stop-color="#00E3FF"/>
</linearGradient>
<linearGradient id="paint1_linear_88_4125" x1="31.5124" y1="18.7026" x2="8.97602" y2="18.7026" gradientUnits="userSpaceOnUse">
<stop stop-color="#FFE000"/>
<stop offset="0.4087" stop-color="#FFBD00"/>
<stop offset="0.7754" stop-color="#FFA500"/>
<stop offset="1" stop-color="#FF9C00"/>
</linearGradient>
<linearGradient id="paint2_linear_88_4125" x1="23.1231" y1="20.8482" x2="1.84305" y2="42.0445" gradientUnits="userSpaceOnUse">
<stop stop-color="#FF3A44"/>
<stop offset="1" stop-color="#C31162"/>
</linearGradient>
<linearGradient id="paint3_linear_88_4125" x1="6.79647" y1="0.164829" x2="16.2989" y2="9.62988" gradientUnits="userSpaceOnUse">
<stop stop-color="#32A071"/>
<stop offset="0.0685" stop-color="#2DA771"/>
<stop offset="0.4762" stop-color="#15CF74"/>
<stop offset="0.8009" stop-color="#06E775"/>
<stop offset="1" stop-color="#00F076"/>
</linearGradient>
<clipPath id="clip0_88_4125">
<rect width="125.736" height="37.4024" fill="white"/>
</clipPath>
</defs>
</svg>
