<svg width="147" height="19" viewBox="0 0 147 19" fill="none" xmlns="http://www.w3.org/2000/svg">
<path d="M18.048 8.976V10.272C18.048 12.672 17.28 14.616 15.744 16.104C14.208 17.592 12.224 18.336 9.792 18.336C7.2 18.336 5.048 17.496 3.336 15.816C1.64 14.12 0.792 12.056 0.792 9.624C0.792 7.176 1.632 5.104 3.312 3.408C5.008 1.712 7.104 0.863999 9.6 0.863999C11.168 0.863999 12.6 1.224 13.896 1.944C15.192 2.648 16.2 3.592 16.92 4.776L14.088 6.408C13.688 5.72 13.08 5.16 12.264 4.728C11.464 4.296 10.568 4.08 9.576 4.08C7.976 4.08 6.656 4.608 5.616 5.664C4.592 6.704 4.08 8.024 4.08 9.624C4.08 11.208 4.6 12.52 5.64 13.56C6.696 14.584 8.088 15.096 9.816 15.096C11.096 15.096 12.152 14.816 12.984 14.256C13.832 13.68 14.408 12.896 14.712 11.904H9.624V8.976H18.048ZM30.4838 16.512C29.2518 17.728 27.7478 18.336 25.9718 18.336C24.1958 18.336 22.6918 17.728 21.4598 16.512C20.2438 15.28 19.6357 13.776 19.6357 12C19.6357 10.224 20.2438 8.728 21.4598 7.512C22.6918 6.28 24.1958 5.664 25.9718 5.664C27.7478 5.664 29.2518 6.28 30.4838 7.512C31.7158 8.728 32.3318 10.224 32.3318 12C32.3318 13.776 31.7158 15.28 30.4838 16.512ZM23.6438 14.376C24.2678 15 25.0438 15.312 25.9718 15.312C26.8998 15.312 27.6758 15 28.2998 14.376C28.9238 13.752 29.2358 12.96 29.2358 12C29.2358 11.04 28.9238 10.248 28.2998 9.624C27.6758 9 26.8998 8.688 25.9718 8.688C25.0438 8.688 24.2678 9 23.6438 9.624C23.0358 10.248 22.7318 11.04 22.7318 12C22.7318 12.96 23.0358 13.752 23.6438 14.376ZM47.7818 5.664C49.1578 5.664 50.2538 6.112 51.0698 7.008C51.9018 7.904 52.3178 9.104 52.3178 10.608V18H49.2218V10.824C49.2218 10.104 49.0458 9.544 48.6938 9.144C48.3418 8.744 47.8458 8.544 47.2057 8.544C46.5018 8.544 45.9498 8.776 45.5498 9.24C45.1658 9.704 44.9738 10.376 44.9738 11.256V18H41.8778V10.824C41.8778 10.104 41.7018 9.544 41.3498 9.144C40.9978 8.744 40.5018 8.544 39.8618 8.544C39.1738 8.544 38.6218 8.776 38.2058 9.24C37.8058 9.704 37.6058 10.376 37.6058 11.256V18H34.5098V6H37.6058V7.272C38.3258 6.2 39.4378 5.664 40.9418 5.664C42.4138 5.664 43.5018 6.24 44.2058 7.392C45.0058 6.24 46.1978 5.664 47.7818 5.664ZM65.1713 16.512C63.9393 17.728 62.4353 18.336 60.6593 18.336C58.8833 18.336 57.3793 17.728 56.1473 16.512C54.9313 15.28 54.3232 13.776 54.3232 12C54.3232 10.224 54.9313 8.728 56.1473 7.512C57.3793 6.28 58.8833 5.664 60.6593 5.664C62.4353 5.664 63.9393 6.28 65.1713 7.512C66.4033 8.728 67.0193 10.224 67.0193 12C67.0193 13.776 66.4033 15.28 65.1713 16.512ZM58.3313 14.376C58.9553 15 59.7313 15.312 60.6593 15.312C61.5873 15.312 62.3633 15 62.9873 14.376C63.6113 13.752 63.9233 12.96 63.9233 12C63.9233 11.04 63.6113 10.248 62.9873 9.624C62.3633 9 61.5873 8.688 60.6593 8.688C59.7313 8.688 58.9553 9 58.3313 9.624C57.7233 10.248 57.4193 11.04 57.4193 12C57.4193 12.96 57.7233 13.752 58.3313 14.376ZM80.2613 18H76.6613L72.2933 12.552V18H69.1973V1.2H72.2933V11.28L76.4213 6H80.1172L75.2933 11.928L80.2613 18ZM89.2579 6H92.3539V18H89.2579V16.656C88.5059 17.776 87.3139 18.336 85.6819 18.336C84.3699 18.336 83.2819 17.896 82.4179 17.016C81.5699 16.136 81.1459 14.92 81.1459 13.368V6H84.2419V12.984C84.2419 13.784 84.4579 14.4 84.8899 14.832C85.3219 15.248 85.8979 15.456 86.6179 15.456C87.4179 15.456 88.0579 15.208 88.5379 14.712C89.0179 14.216 89.2579 13.472 89.2579 12.48V6ZM98.4294 17.712C98.0294 18.112 97.5494 18.312 96.9894 18.312C96.4294 18.312 95.9494 18.112 95.5494 17.712C95.1494 17.312 94.9494 16.832 94.9494 16.272C94.9494 15.712 95.1494 15.232 95.5494 14.832C95.9494 14.432 96.4294 14.232 96.9894 14.232C97.5494 14.232 98.0294 14.432 98.4294 14.832C98.8294 15.232 99.0294 15.712 99.0294 16.272C99.0294 16.832 98.8294 17.312 98.4294 17.712Z" fill="#344861"/>
<path d="M107.323 18.336C105.515 18.336 104.003 17.728 102.787 16.512C101.587 15.296 100.987 13.792 100.987 12C100.987 10.208 101.587 8.704 102.787 7.488C104.003 6.272 105.515 5.664 107.323 5.664C108.491 5.664 109.555 5.944 110.515 6.504C111.475 7.064 112.203 7.816 112.699 8.76L110.035 10.32C109.795 9.824 109.427 9.432 108.931 9.144C108.451 8.856 107.907 8.712 107.299 8.712C106.371 8.712 105.603 9.024 104.995 9.648C104.387 10.256 104.083 11.04 104.083 12C104.083 12.944 104.387 13.728 104.995 14.352C105.603 14.96 106.371 15.264 107.299 15.264C107.923 15.264 108.475 15.128 108.955 14.856C109.451 14.568 109.819 14.176 110.059 13.68L112.747 15.216C112.219 16.16 111.475 16.92 110.515 17.496C109.555 18.056 108.491 18.336 107.323 18.336ZM124.421 16.512C123.189 17.728 121.685 18.336 119.909 18.336C118.133 18.336 116.629 17.728 115.397 16.512C114.181 15.28 113.573 13.776 113.573 12C113.573 10.224 114.181 8.728 115.397 7.512C116.629 6.28 118.133 5.664 119.909 5.664C121.685 5.664 123.189 6.28 124.421 7.512C125.653 8.728 126.269 10.224 126.269 12C126.269 13.776 125.653 15.28 124.421 16.512ZM117.581 14.376C118.205 15 118.981 15.312 119.909 15.312C120.837 15.312 121.613 15 122.237 14.376C122.861 13.752 123.173 12.96 123.173 12C123.173 11.04 122.861 10.248 122.237 9.624C121.613 9 120.837 8.688 119.909 8.688C118.981 8.688 118.205 9 117.581 9.624C116.973 10.248 116.669 11.04 116.669 12C116.669 12.96 116.973 13.752 117.581 14.376ZM141.719 5.664C143.095 5.664 144.191 6.112 145.007 7.008C145.839 7.904 146.255 9.104 146.255 10.608V18H143.159V10.824C143.159 10.104 142.983 9.544 142.631 9.144C142.279 8.744 141.783 8.544 141.143 8.544C140.439 8.544 139.887 8.776 139.487 9.24C139.103 9.704 138.911 10.376 138.911 11.256V18H135.815V10.824C135.815 10.104 135.639 9.544 135.287 9.144C134.935 8.744 134.439 8.544 133.799 8.544C133.111 8.544 132.559 8.776 132.143 9.24C131.743 9.704 131.543 10.376 131.543 11.256V18H128.447V6H131.543V7.272C132.263 6.2 133.375 5.664 134.879 5.664C136.351 5.664 137.439 6.24 138.143 7.392C138.943 6.24 140.135 5.664 141.719 5.664Z" fill="#0072E3"/>
</svg>
