<svg width="93" height="93" viewBox="0 0 93 93" fill="none" xmlns="http://www.w3.org/2000/svg">
<g clip-path="url(#clip0_88_4500)">
<path d="M93 0H0V93H93V0Z" fill="#0072E3"/>
<path fill-rule="evenodd" clip-rule="evenodd" d="M93 36.5643L74.6997 18.264L18.3003 74.6544L35.983 92.3462L36.646 93.0001H93V36.5643Z" fill="#0660BA"/>
<path d="M74.6997 18.264H18.3003V74.6635H74.6997V18.264Z" fill="#F3F6FA"/>
<path opacity="0.5" d="M27.8001 20.1621H27.237V73.0195H27.8001V20.1621Z" fill="#344861"/>
<path opacity="0.5" d="M37.2726 20.1621H36.7096V73.0195H37.2726V20.1621Z" fill="#344861"/>
<path opacity="0.5" d="M46.7361 20.1621H46.173V73.0195H46.7361V20.1621Z" fill="#344861"/>
<path opacity="0.5" d="M56.1996 20.1621H55.6365V73.0195H56.1996V20.1621Z" fill="#344861"/>
<path opacity="0.5" d="M65.6722 20.1621H65.1091V73.0195H65.6722V20.1621Z" fill="#344861"/>
<path opacity="0.5" d="M72.8833 27.3732H20.0259V27.9363H72.8833V27.3732Z" fill="#344861"/>
<path opacity="0.5" d="M72.8833 36.8458H20.0259V37.4088H72.8833V36.8458Z" fill="#344861"/>
<path opacity="0.5" d="M72.8833 46.3092H20.0259V46.8723H72.8833V46.3092Z" fill="#344861"/>
<path opacity="0.5" d="M72.8833 55.7728H20.0259V56.3359H72.8833V55.7728Z" fill="#344861"/>
<path opacity="0.5" d="M72.8833 65.2452H20.0259V65.8083H72.8833V65.2452Z" fill="#344861"/>
<path d="M27.5185 31.2059C29.4898 31.2059 31.0878 29.6079 31.0878 27.6366C31.0878 25.6654 29.4898 24.0674 27.5185 24.0674C25.5473 24.0674 23.9493 25.6654 23.9493 27.6366C23.9493 29.6079 25.5473 31.2059 27.5185 31.2059Z" fill="#344861"/>
<path d="M27.5185 40.7782C29.4898 40.7782 31.0878 39.1802 31.0878 37.209C31.0878 35.2378 29.4898 33.6398 27.5185 33.6398C25.5473 33.6398 23.9493 35.2378 23.9493 37.209C23.9493 39.1802 25.5473 40.7782 27.5185 40.7782Z" fill="#344861"/>
<path d="M46.4727 40.7782C48.444 40.7782 50.042 39.1802 50.042 37.209C50.042 35.2378 48.444 33.6398 46.4727 33.6398C44.5015 33.6398 42.9035 35.2378 42.9035 37.209C42.9035 39.1802 44.5015 40.7782 46.4727 40.7782Z" fill="#344861"/>
<path d="M55.9181 40.7782C57.8893 40.7782 59.4873 39.1802 59.4873 37.209C59.4873 35.2378 57.8893 33.6398 55.9181 33.6398C53.9468 33.6398 52.3488 35.2378 52.3488 37.209C52.3488 39.1802 53.9468 40.7782 55.9181 40.7782Z" fill="#344861"/>
<path d="M55.9726 59.6053C57.9438 59.6053 59.5418 58.0073 59.5418 56.0361C59.5418 54.0649 57.9438 52.4669 55.9726 52.4669C54.0013 52.4669 52.4033 54.0649 52.4033 56.0361C52.4033 58.0073 54.0013 59.6053 55.9726 59.6053Z" fill="#344861"/>
<path d="M55.9726 68.9871C57.9438 68.9871 59.5418 67.3891 59.5418 65.4179C59.5418 63.4466 57.9438 61.8486 55.9726 61.8486C54.0013 61.8486 52.4033 63.4466 52.4033 65.4179C52.4033 67.3891 54.0013 68.9871 55.9726 68.9871Z" fill="#344861"/>
<path d="M65.4815 40.969C67.4527 40.969 69.0507 39.371 69.0507 37.3998C69.0507 35.4286 67.4527 33.8306 65.4815 33.8306C63.5102 33.8306 61.9122 35.4286 61.9122 37.3998C61.9122 39.371 63.5102 40.969 65.4815 40.969Z" fill="#344861"/>
<path d="M55.9181 50.2236C57.8893 50.2236 59.4873 48.6256 59.4873 46.6543C59.4873 44.6831 57.8893 43.0851 55.9181 43.0851C53.9468 43.0851 52.3488 44.6831 52.3488 46.6543C52.3488 48.6256 53.9468 50.2236 55.9181 50.2236Z" fill="#344861"/>
<path d="M27.5185 59.9051C29.4898 59.9051 31.0878 58.3071 31.0878 56.3358C31.0878 54.3646 29.4898 52.7666 27.5185 52.7666C25.5473 52.7666 23.9493 54.3646 23.9493 56.3358C23.9493 58.3071 25.5473 59.9051 27.5185 59.9051Z" fill="#344861"/>
<g filter="url(#filter0_d_88_4500)">
<path d="M36.9639 31.2059C38.9351 31.2059 40.5331 29.6079 40.5331 27.6366C40.5331 25.6654 38.9351 24.0674 36.9639 24.0674C34.9926 24.0674 33.3946 25.6654 33.3946 27.6366C33.3946 29.6079 34.9926 31.2059 36.9639 31.2059Z" fill="white"/>
</g>
<g filter="url(#filter1_d_88_4500)">
<path d="M55.9726 31.2059C57.9438 31.2059 59.5418 29.6079 59.5418 27.6366C59.5418 25.6654 57.9438 24.0674 55.9726 24.0674C54.0013 24.0674 52.4033 25.6654 52.4033 27.6366C52.4033 29.6079 54.0013 31.2059 55.9726 31.2059Z" fill="white"/>
</g>
<g filter="url(#filter2_d_88_4500)">
<path d="M36.9639 40.5331C38.9351 40.5331 40.5331 38.9351 40.5331 36.9638C40.5331 34.9926 38.9351 33.3946 36.9639 33.3946C34.9926 33.3946 33.3946 34.9926 33.3946 36.9638C33.3946 38.9351 34.9926 40.5331 36.9639 40.5331Z" fill="white"/>
</g>
<g filter="url(#filter3_d_88_4500)">
<path d="M36.9639 50.0419C38.9351 50.0419 40.5331 48.4439 40.5331 46.4727C40.5331 44.5014 38.9351 42.9034 36.9639 42.9034C34.9926 42.9034 33.3946 44.5014 33.3946 46.4727C33.3946 48.4439 34.9926 50.0419 36.9639 50.0419Z" fill="white"/>
</g>
<g filter="url(#filter4_d_88_4500)">
<path d="M27.455 50.0419C29.4262 50.0419 31.0242 48.4439 31.0242 46.4727C31.0242 44.5014 29.4262 42.9034 27.455 42.9034C25.4837 42.9034 23.8857 44.5014 23.8857 46.4727C23.8857 48.4439 25.4837 50.0419 27.455 50.0419Z" fill="white"/>
</g>
<g filter="url(#filter5_d_88_4500)">
<path d="M27.5185 69.0506C29.4898 69.0506 31.0878 67.4526 31.0878 65.4814C31.0878 63.5102 29.4898 61.9122 27.5185 61.9122C25.5473 61.9122 23.9493 63.5102 23.9493 65.4814C23.9493 67.4526 25.5473 69.0506 27.5185 69.0506Z" fill="white"/>
</g>
<g filter="url(#filter6_d_88_4500)">
<path d="M46.4727 50.0419C48.444 50.0419 50.042 48.4439 50.042 46.4727C50.042 44.5014 48.444 42.9034 46.4727 42.9034C44.5015 42.9034 42.9035 44.5014 42.9035 46.4727C42.9035 48.4439 44.5015 50.0419 46.4727 50.0419Z" fill="white"/>
</g>
<path d="M46.4727 68.8146C48.444 68.8146 50.042 67.2166 50.042 65.2454C50.042 63.2742 48.444 61.6761 46.4727 61.6761C44.5015 61.6761 42.9035 63.2742 42.9035 65.2454C42.9035 67.2166 44.5015 68.8146 46.4727 68.8146Z" fill="white"/>
</g>
<defs>
<filter id="filter0_d_88_4500" x="22.2901" y="12.9629" width="29.3474" height="29.3474" filterUnits="userSpaceOnUse" color-interpolation-filters="sRGB">
<feFlood flood-opacity="0" result="BackgroundImageFix"/>
<feColorMatrix in="SourceAlpha" type="matrix" values="0 0 0 0 0 0 0 0 0 0 0 0 0 0 0 0 0 0 127 0" result="hardAlpha"/>
<feOffset/>
<feGaussianBlur stdDeviation="5.55224"/>
<feComposite in2="hardAlpha" operator="out"/>
<feColorMatrix type="matrix" values="0 0 0 0 0 0 0 0 0 0 0 0 0 0 0 0 0 0 0.25 0"/>
<feBlend mode="normal" in2="BackgroundImageFix" result="effect1_dropShadow_88_4500"/>
<feBlend mode="normal" in="SourceGraphic" in2="effect1_dropShadow_88_4500" result="shape"/>
</filter>
<filter id="filter1_d_88_4500" x="41.2988" y="12.9629" width="29.3474" height="29.3474" filterUnits="userSpaceOnUse" color-interpolation-filters="sRGB">
<feFlood flood-opacity="0" result="BackgroundImageFix"/>
<feColorMatrix in="SourceAlpha" type="matrix" values="0 0 0 0 0 0 0 0 0 0 0 0 0 0 0 0 0 0 127 0" result="hardAlpha"/>
<feOffset/>
<feGaussianBlur stdDeviation="5.55224"/>
<feComposite in2="hardAlpha" operator="out"/>
<feColorMatrix type="matrix" values="0 0 0 0 0 0 0 0 0 0 0 0 0 0 0 0 0 0 0.25 0"/>
<feBlend mode="normal" in2="BackgroundImageFix" result="effect1_dropShadow_88_4500"/>
<feBlend mode="normal" in="SourceGraphic" in2="effect1_dropShadow_88_4500" result="shape"/>
</filter>
<filter id="filter2_d_88_4500" x="22.2901" y="22.2901" width="29.3474" height="29.3474" filterUnits="userSpaceOnUse" color-interpolation-filters="sRGB">
<feFlood flood-opacity="0" result="BackgroundImageFix"/>
<feColorMatrix in="SourceAlpha" type="matrix" values="0 0 0 0 0 0 0 0 0 0 0 0 0 0 0 0 0 0 127 0" result="hardAlpha"/>
<feOffset/>
<feGaussianBlur stdDeviation="5.55224"/>
<feComposite in2="hardAlpha" operator="out"/>
<feColorMatrix type="matrix" values="0 0 0 0 0 0 0 0 0 0 0 0 0 0 0 0 0 0 0.25 0"/>
<feBlend mode="normal" in2="BackgroundImageFix" result="effect1_dropShadow_88_4500"/>
<feBlend mode="normal" in="SourceGraphic" in2="effect1_dropShadow_88_4500" result="shape"/>
</filter>
<filter id="filter3_d_88_4500" x="22.2901" y="31.799" width="29.3474" height="29.3474" filterUnits="userSpaceOnUse" color-interpolation-filters="sRGB">
<feFlood flood-opacity="0" result="BackgroundImageFix"/>
<feColorMatrix in="SourceAlpha" type="matrix" values="0 0 0 0 0 0 0 0 0 0 0 0 0 0 0 0 0 0 127 0" result="hardAlpha"/>
<feOffset/>
<feGaussianBlur stdDeviation="5.55224"/>
<feComposite in2="hardAlpha" operator="out"/>
<feColorMatrix type="matrix" values="0 0 0 0 0 0 0 0 0 0 0 0 0 0 0 0 0 0 0.25 0"/>
<feBlend mode="normal" in2="BackgroundImageFix" result="effect1_dropShadow_88_4500"/>
<feBlend mode="normal" in="SourceGraphic" in2="effect1_dropShadow_88_4500" result="shape"/>
</filter>
<filter id="filter4_d_88_4500" x="12.7813" y="31.799" width="29.3474" height="29.3474" filterUnits="userSpaceOnUse" color-interpolation-filters="sRGB">
<feFlood flood-opacity="0" result="BackgroundImageFix"/>
<feColorMatrix in="SourceAlpha" type="matrix" values="0 0 0 0 0 0 0 0 0 0 0 0 0 0 0 0 0 0 127 0" result="hardAlpha"/>
<feOffset/>
<feGaussianBlur stdDeviation="5.55224"/>
<feComposite in2="hardAlpha" operator="out"/>
<feColorMatrix type="matrix" values="0 0 0 0 0 0 0 0 0 0 0 0 0 0 0 0 0 0 0.25 0"/>
<feBlend mode="normal" in2="BackgroundImageFix" result="effect1_dropShadow_88_4500"/>
<feBlend mode="normal" in="SourceGraphic" in2="effect1_dropShadow_88_4500" result="shape"/>
</filter>
<filter id="filter5_d_88_4500" x="12.8448" y="50.8077" width="29.3474" height="29.3474" filterUnits="userSpaceOnUse" color-interpolation-filters="sRGB">
<feFlood flood-opacity="0" result="BackgroundImageFix"/>
<feColorMatrix in="SourceAlpha" type="matrix" values="0 0 0 0 0 0 0 0 0 0 0 0 0 0 0 0 0 0 127 0" result="hardAlpha"/>
<feOffset/>
<feGaussianBlur stdDeviation="5.55224"/>
<feComposite in2="hardAlpha" operator="out"/>
<feColorMatrix type="matrix" values="0 0 0 0 0 0 0 0 0 0 0 0 0 0 0 0 0 0 0.25 0"/>
<feBlend mode="normal" in2="BackgroundImageFix" result="effect1_dropShadow_88_4500"/>
<feBlend mode="normal" in="SourceGraphic" in2="effect1_dropShadow_88_4500" result="shape"/>
</filter>
<filter id="filter6_d_88_4500" x="31.799" y="31.799" width="29.3474" height="29.3474" filterUnits="userSpaceOnUse" color-interpolation-filters="sRGB">
<feFlood flood-opacity="0" result="BackgroundImageFix"/>
<feColorMatrix in="SourceAlpha" type="matrix" values="0 0 0 0 0 0 0 0 0 0 0 0 0 0 0 0 0 0 127 0" result="hardAlpha"/>
<feOffset/>
<feGaussianBlur stdDeviation="5.55224"/>
<feComposite in2="hardAlpha" operator="out"/>
<feColorMatrix type="matrix" values="0 0 0 0 0 0 0 0 0 0 0 0 0 0 0 0 0 0 0.25 0"/>
<feBlend mode="normal" in2="BackgroundImageFix" result="effect1_dropShadow_88_4500"/>
<feBlend mode="normal" in="SourceGraphic" in2="effect1_dropShadow_88_4500" result="shape"/>
</filter>
<clipPath id="clip0_88_4500">
<rect width="93" height="93" rx="12" fill="white"/>
</clipPath>
</defs>
</svg>
